<svg id="Group_208" data-name="Group 208" xmlns="http://www.w3.org/2000/svg" width="50.385" height="50.388" viewBox="0 0 50.385 50.388">
  <defs>
    <style>
      .cls-1 {
        fill: #00accd;
      }
    </style>
  </defs>
  <path id="Path_100" data-name="Path 100" class="cls-1" d="M176.3,739.9c.288-.79.485-1.506.8-2.163a1.371,1.371,0,0,0-.368-1.825,1.408,1.408,0,0,0-1.911-.4c-.572.29-1.215.438-1.815.678a.475.475,0,0,1-.691-.236q-.669-1.189-1.37-2.36a.516.516,0,0,1,.151-.767c.664-.543,1.306-1.114,1.979-1.645.285-.225.4-.428.246-.787a2.659,2.659,0,0,1-.271-.953c-.017-.651-.405-.778-.937-.85-.761-.1-1.513-.275-2.273-.393a.5.5,0,0,1-.492-.6c.017-.875.023-1.752-.005-2.626-.014-.431.176-.591.566-.652.846-.132,1.687-.3,2.534-.429.318-.049.5-.166.539-.507a2,2,0,0,1,.176-.71,1.131,1.131,0,0,0-.5-1.678c-.567-.37-1.048-.872-1.58-1.3a.512.512,0,0,1-.125-.77c.444-.733.884-1.47,1.29-2.225a.586.586,0,0,1,.849-.321c.815.316,1.645.592,2.458.91.27.1.459.1.631-.15a1.206,1.206,0,0,1,.322-.344,1.5,1.5,0,0,0,.492-2.277A13.212,13.212,0,0,1,176.43,713a.543.543,0,0,1,.277-.778c.767-.418,1.524-.86,2.269-1.316a.533.533,0,0,1,.807.15c.552.68,1.138,1.331,1.68,2.018a.545.545,0,0,0,.711.2,9.1,9.1,0,0,1,1.313-.36.488.488,0,0,0,.456-.466c.136-.846.31-1.686.429-2.534.067-.474.268-.655.757-.631a21.154,21.154,0,0,0,2.363,0c.551-.035.743.194.817.693.121.83.3,1.651.423,2.48.043.3.171.428.454.458a1.205,1.205,0,0,1,.458.1c1,.559,1.656.167,2.207-.715a15.908,15.908,0,0,1,1.031-1.258.534.534,0,0,1,.812-.135c.762.462,1.537.9,2.315,1.342a.478.478,0,0,1,.246.688c-.327.848-.616,1.71-.939,2.559a.49.49,0,0,0,.153.636,10.068,10.068,0,0,1,1,1,.482.482,0,0,0,.633.153c.814-.317,1.645-.592,2.457-.912a.583.583,0,0,1,.852.31c.405.755.838,1.495,1.28,2.23a.54.54,0,0,1-.146.812c-.7.56-1.384,1.129-2.048,1.726a.711.711,0,0,0-.17.563c.08.463.27.907.344,1.371.057.356.248.455.553.5.829.134,1.652.3,2.482.42.418.061.613.22.6.675-.031.839-.026,1.681,0,2.521.012.42-.1.639-.559.7-.831.112-1.651.3-2.481.427-.355.055-.555.168-.6.569a5.147,5.147,0,0,1-.32,1.214.545.545,0,0,0,.2.72c.642.515,1.255,1.065,1.9,1.573a.651.651,0,0,1,.192,1.016c-.427.661-.819,1.347-1.178,2.047-.228.446-.48.565-.957.366-.773-.323-1.575-.579-2.358-.879a.509.509,0,0,0-.679.158,4.861,4.861,0,0,1-.849.855.706.706,0,0,0-.223.982c.309.761.556,1.546.858,2.31a.5.5,0,0,1-.257.729q-1.172.646-2.32,1.335a.522.522,0,0,1-.774-.128c-.566-.69-1.13-1.385-1.73-2.044a.776.776,0,0,0-.61-.184,8.515,8.515,0,0,0-1.418.368.65.65,0,0,0-.375.392c-.19.888-.357,1.783-.492,2.682-.062.4-.249.523-.63.516-.875-.018-1.752-.022-2.627,0a.53.53,0,0,1-.624-.53c-.132-.846-.294-1.688-.429-2.534-.053-.333-.174-.526-.549-.57a4.038,4.038,0,0,1-1.061-.282.732.732,0,0,0-1.013.29c-.465.635-1.015,1.206-1.5,1.825a.584.584,0,0,1-.891.175c-.746-.457-1.515-.873-2.264-1.325A2.02,2.02,0,0,1,176.3,739.9Zm15.543-13.226a5.217,5.217,0,0,0-.368-.471q-2.984-2.995-5.973-5.984c-.276-.277-.513-.464-.872-.1q-2.217,2.241-4.456,4.458a.46.46,0,0,0,0,.76c.515.5,1.017,1.013,1.525,1.519l4.993,4.97c-.617.6-1.212,1.167-1.781,1.758-.125.131-.253.4-.2.528a.648.648,0,0,0,.51.245c2.888.016,5.777.012,8.665.015a.48.48,0,0,0,.543-.551c0-2.889,0-5.777-.017-8.665a.639.639,0,0,0-.252-.506c-.132-.051-.393.083-.526.21C193.06,725.415,192.507,726,191.846,726.674Z" transform="translate(-169.347 -709.278)"/>
  <path id="Path_101" data-name="Path 101" class="cls-1" d="M196.589,751.122c-.558.046-1.116.089-1.674.143a.414.414,0,0,1-.519-.37c-.142-.612-.318-1.217-.492-1.821a.5.5,0,0,1,.329-.7,16.947,16.947,0,0,0,1.706-.8c.151-.082.216-.328.3-.507.026-.055-.024-.143-.008-.206.249-.967-.318-1.323-1.1-1.647-1.368-.564-1.35-.605-.956-2.062.336-1.239.336-1.239,1.635-1.143a.514.514,0,0,1,.105.008,1.45,1.45,0,0,0,1.989-1.046.538.538,0,0,0-.034-.606c-.364-.492-.7-1.007-1.066-1.495a.512.512,0,0,1,.061-.809c.441-.4.863-.822,1.261-1.263a.514.514,0,0,1,.811-.054c.489.368,1,.7,1.5,1.066a.54.54,0,0,0,.606.028,1.556,1.556,0,0,0,1.067-2c-.212-1.384-.126-1.415,1.216-1.761,1.607-.413,1.207-.58,1.928.906.015.031.033.062.048.093.556,1.2.692,1.281,2.006,1.1a.6.6,0,0,0,.347-.319q.435-.864.824-1.755a.425.425,0,0,1,.579-.281c.657.181,1.323.331,1.967.549a.627.627,0,0,1,.288.5c-.012.646-.108,1.291-.121,1.937a.811.811,0,0,0,.277.524,1.5,1.5,0,0,0,2.25-.077c1.06-.881,1.115-.815,2.1.174,1,1,1,1,.191,2.154l-.031.042c-.789,1.123-.794,1.255.037,2.322a.667.667,0,0,0,.493.141c.611-.036,1.22-.1,1.829-.167.324-.036.524.041.6.4.141.63.3,1.257.5,1.874a.406.406,0,0,1-.263.576c-.557.253-1.1.539-1.665.771-.321.132-.394.318-.446.659-.149.972.244,1.452,1.146,1.8,1.36.525,1.334.59.962,2.005-.355,1.348-.355,1.348-1.737,1.171l-.052-.007c-1.272-.157-1.526-.015-2.014,1.187a.6.6,0,0,0,.094.458c.346.527.7,1.045,1.085,1.547a.479.479,0,0,1-.074.758c-.438.4-.862.823-1.261,1.263a.5.5,0,0,1-.8.081c-.5-.384-1.016-.748-1.55-1.081a1,1,0,0,0-.55-.024c-.078.006-.143.109-.223.131-.977.269-.986.966-.865,1.792.212,1.467.186,1.471-1.222,1.834-.17.043-.341.081-.509.125-.843.222-.843.223-1.195-.542-.081-.174-.16-.35-.241-.524-.572-1.221-.572-1.23-1.913-1.154a.662.662,0,0,0-.461.3c-.3.57-.566,1.162-.831,1.752a.429.429,0,0,1-.613.284c-.6-.19-1.211-.342-1.824-.48-.369-.083-.471-.283-.428-.637.074-.608.108-1.22.184-1.828.035-.282-.075-.405-.3-.581a1.551,1.551,0,0,0-2.263.093c-1.061.883-1.118.816-2.1-.16-1.007-1-1.007-1-.2-2.155l.029-.042c.809-1.156.823-1.168-.014-2.279-.126-.169-.469-.175-.712-.256Zm9.74-8.781c.51-.476.965-.884,1.4-1.314.1-.1.214-.32.171-.386a.565.565,0,0,0-.414-.219c-2.188-.014-4.378-.008-6.566-.012-.309,0-.446.129-.445.441,0,2.189,0,4.378.012,6.567a.573.573,0,0,0,.218.414c.068.043.291-.07.388-.168.43-.435.838-.888,1.274-1.357.2.193.33.309.45.431,1.475,1.473,2.955,2.94,4.416,4.425.309.314.525.362.856.018q1.551-1.606,3.158-3.158c.344-.333.3-.55-.018-.856-.955-.927-1.885-1.88-2.831-2.816C207.739,743.7,207.072,743.063,206.329,742.341Z" transform="translate(-169.083 -709.014)"/>
</svg>
