<svg id="Group_209" data-name="Group 209" xmlns="http://www.w3.org/2000/svg" width="39.562" height="39.345" viewBox="0 0 39.562 39.345">
  <defs>
    <style>
      .cls-1 {
        fill: #00accd;
      }
    </style>
  </defs>
  <path id="Path_103" data-name="Path 103" class="cls-1" d="M134.288,604.709c1.02,0,1.844-.035,2.665.011.632.035.9-.093.966-.862a11.522,11.522,0,0,1,4.6-8.624,10.086,10.086,0,0,1,6.848-1.917c.416.023.6.176.592.613q-.018,1.7,0,3.4c0,.467-.226.57-.62.572a10.329,10.329,0,0,0-2.076.089,6.771,6.771,0,0,0-5.191,5.912c-.066.546.029.846.651.812.778-.043,1.559-.011,2.542-.011-1.8,2.187-3.482,4.2-5.131,6.243-.4.5-.595.154-.824-.125C137.679,608.846,136.054,606.862,134.288,604.709Z" transform="translate(-134.288 -593.19)"/>
  <path id="Path_104" data-name="Path 104" class="cls-1" d="M169.928,617.568c-1.028,0-1.852.037-2.672-.012-.651-.039-.888.128-.955.878-.449,5-3.335,8.777-7.635,10.139a15.955,15.955,0,0,1-3.626.492c-.621.049-.811-.249-.79-.855.031-.927.053-1.86-.006-2.785-.05-.81.209-1.122,1.009-1.052a5.905,5.905,0,0,0,4.206-1.213,7.118,7.118,0,0,0,2.688-4.861c.08-.517-.078-.765-.628-.741-.784.035-1.569.01-2.56.01l5.476-6.647Z" transform="translate(-130.366 -589.726)"/>
  <path id="Path_105" data-name="Path 105" class="cls-1" d="M166.464,593.237q-6.9-.057-13.805,0a2.129,2.129,0,0,0-2.242,2.427q-.016,6.237,0,12.473a2.078,2.078,0,0,0,2.331,2.385c2.252.011,4.5,0,6.754,0,2.318,0,4.634.011,6.952,0a1.917,1.917,0,0,0,2.087-2.171q.022-6.443,0-12.885A1.978,1.978,0,0,0,166.464,593.237Zm-1.937,11.745c-.006,1.083-.308,1.383-1.377,1.393-1.224.012-2.449,0-3.675,0-1.258,0-2.516-.014-3.774,0a1.13,1.13,0,0,1-1.27-1.242q-.054-3.2,0-6.391a1.157,1.157,0,0,1,1.334-1.276c2.515.031,5.032.024,7.548,0,.893-.007,1.242.408,1.23,1.319C164.512,600.857,164.538,602.919,164.527,604.981Z" transform="translate(-131.119 -593.208)"/>
  <path id="Path_106" data-name="Path 106" class="cls-1" d="M153.378,614.015a2.083,2.083,0,0,0-2.324-2.393c-2.251-.01-4.5,0-6.752,0-2.284,0-4.567-.007-6.852,0-1.5.006-2.2.713-2.2,2.26q-.014,6.338,0,12.677a2.076,2.076,0,0,0,2.172,2.353q6.8.043,13.6,0c1.569-.01,2.354-.9,2.356-2.53Q153.388,620.2,153.378,614.015Zm-4.013,9.226c-.011,1.052-.385,1.408-1.389,1.415-1.225.01-2.451,0-3.676,0-1.258,0-2.516-.02-3.774.007-.863.018-1.294-.33-1.284-1.268q.032-3.145,0-6.29c-.008-.973.445-1.352,1.344-1.347q3.726.023,7.451,0c.942-.007,1.323.509,1.329,1.4C149.381,619.185,149.387,621.214,149.365,623.241Z" transform="translate(-134.101 -589.589)"/>
</svg>
