<svg xmlns="http://www.w3.org/2000/svg" width="41.405" height="36.575" viewBox="0 0 41.405 36.575">
  <path id="Exclusion_4" data-name="Exclusion 4" d="M4369.323-2501.424h-37.239a2.087,2.087,0,0,1-2.083-2.085v-21.378h41.4v21.378A2.086,2.086,0,0,1,4369.323-2501.424Zm-27.526-13.462-1.8,1.785,7.076,7.076,15.189-15.19-1.784-1.785-13.405,13.393Zm29.608-11.383H4330v-9.646a2.086,2.086,0,0,1,2.083-2.084h15.168a2.086,2.086,0,0,1,2.083,2.084v3.436h19.988a2.086,2.086,0,0,1,2.082,2.084v4.125Z" transform="translate(-4330 2538)" fill="#00accd"/>
</svg>
