<svg id="Group_206" data-name="Group 206" xmlns="http://www.w3.org/2000/svg" width="51.049" height="51.034" viewBox="0 0 51.049 51.034">
  <defs>
    <style>
      .cls-1 {
        fill: #00accd;
      }
    </style>
  </defs>
  <path id="Path_90" data-name="Path 90" class="cls-1" d="M425.338,494a4.647,4.647,0,0,0-1.464-3.451c-1.942-1.967-3.91-3.908-5.857-5.87-.757-.763-1.452-1.591-2.243-2.316a8.1,8.1,0,0,0-2.519-1.929,4.668,4.668,0,0,0-1.505-.342c-2.64-.034-5.282-.026-7.923-.007-.534,0-1.067.139-1.6.169a.821.821,0,0,1-.565-.185c-2.4-2.373-4.765-4.772-7.168-7.137a29.577,29.577,0,0,0-2.4-2.087,5.36,5.36,0,0,0-1.162-.54h-9.967c-.474.133-.957.238-1.419.4a7.818,7.818,0,0,0-5.151,5.779c-.042.164-.072.331-.109.5v27.907c.228.683.428,1.376.689,2.045a6.986,6.986,0,0,0,2.394,3.031,8.124,8.124,0,0,0,5.127,1.609c4.219-.028,8.438-.009,12.657-.009h.664c0,.532.008,1.04,0,1.548a7.933,7.933,0,0,0,1.625,5.172,7.518,7.518,0,0,0,6.131,3.044c4.7.007,9.4-.009,14.1.009a7.824,7.824,0,0,0,7.528-6.185,5.9,5.9,0,0,0,.109-1.273C425.32,507.251,425.293,500.623,425.338,494ZM398.8,506.429a5.329,5.329,0,0,1-3.454,1.155c-2.126-.008-4.252,0-6.378,0-2.176,0-4.353.022-6.528-.009a4.062,4.062,0,0,1-3.12-1.291,3.779,3.779,0,0,1-1.041-2.564q-.013-2.467,0-4.933.043-6.818.1-13.635c.023-2.618.047-5.236.106-7.854a2.981,2.981,0,0,1,1.472-2.3,3.686,3.686,0,0,1,2.289-.716c2.491.021,4.984-.008,7.475.015a1.944,1.944,0,0,1,2.016,1.326,3.732,3.732,0,0,1,.19,1.1c.024,1.079.051,2.161,0,3.238a2.038,2.038,0,0,0,2.192,2.2c1.279.025,2.558,0,3.837.006A1.612,1.612,0,0,1,399.7,483.9q.058,10.405.1,20.81A2.2,2.2,0,0,1,398.8,506.429Zm21.458,9.907a5.015,5.015,0,0,1-3.241,1.025c-4.45-.029-8.9-.009-13.352-.013a3.858,3.858,0,0,1-3.763-3.737c.022-.93-.007-1.86.014-2.79a.685.685,0,0,1,.217-.5,7.854,7.854,0,0,0,3.48-4.958c0-.01.019-.017.051-.045l7.782,5.953V505.7h5.872v-3.976h-5.825v-5.695l-7.673,5.874V484.085c.141-.01.284-.028.427-.028,2.259,0,4.517-.016,6.776.008a2.22,2.22,0,0,1,1.9.724,2.538,2.538,0,0,1,.519,1.269c.07,1.208.016,2.423.027,3.636a2.064,2.064,0,0,0,1.123,2.006,2.14,2.14,0,0,0,.878.22c1.212.024,2.425,0,3.637.016a4,4,0,0,1,1.017.136,1.537,1.537,0,0,1,1.212,1.625q.012,10.537,0,21.074C421.332,515.527,420.76,515.94,420.255,516.335Z" transform="translate(-374.289 -470.303)"/>
  <path id="Path_91" data-name="Path 91" class="cls-1" d="M401.7,520.515h-5.824v3.994h5.856v5.631l9.937-7.615L401.7,514.9Z" transform="translate(-388.166 -498.975)"/>
</svg>
