<svg xmlns="http://www.w3.org/2000/svg" width="47.235" height="46.656" viewBox="0 0 47.235 46.656">
  <defs>
    <style>
      .cls-1 {
        fill: #00accd;
      }
    </style>
  </defs>
  <path id="Path_146" data-name="Path 146" class="cls-1" d="M328.006,768.447c-.592-.14-1.194-.252-1.775-.426a6.082,6.082,0,0,1-3.076-1.9,3.111,3.111,0,0,1-.74-2.058c.015-2.706-.018-5.413.018-8.118a6.7,6.7,0,0,0-.69-3.059,37.394,37.394,0,0,0-4.339-6.807c-3.574-4.547-7.227-9.032-10.858-13.534a3.419,3.419,0,0,1,.133-4.958,11.94,11.94,0,0,1,4.288-2.76,36.071,36.071,0,0,1,8.39-2.277,60.643,60.643,0,0,1,11.859-.719,47.731,47.731,0,0,1,15.361,2.677,14.084,14.084,0,0,1,4.663,2.664,4.271,4.271,0,0,1,1.517,2.6,3.46,3.46,0,0,1-.958,2.714c-2.035,2.456-4.083,4.9-6.085,7.384a99.24,99.24,0,0,0-8.145,11.175,11.174,11.174,0,0,0-1.584,3.6,4.5,4.5,0,0,0-.072.826c0,2.81-.026,5.621.008,8.431a3.448,3.448,0,0,1-1.331,2.811,7.683,7.683,0,0,1-3.869,1.624,3.67,3.67,0,0,0-.4.107Zm1.991-33.3c1.145-.073,3.091-.164,5.032-.327a37.735,37.735,0,0,0,8.395-1.594,9.593,9.593,0,0,0,3.586-1.8c.973-.867,1.011-1.8-.016-2.593a10.188,10.188,0,0,0-2.494-1.406,36.878,36.878,0,0,0-11.89-2.169c-2.713-.113-5.441-.034-8.156.088a38.031,38.031,0,0,0-8.9,1.467,11.187,11.187,0,0,0-4.029,1.844c-1.2.968-1.174,2.02.043,2.971.055.043.115.08.172.12a13.422,13.422,0,0,0,4.33,1.821A55.834,55.834,0,0,0,330,735.151Z" transform="translate(-305.547 -721.791)"/>
</svg>
