<svg id="Group_95" data-name="Group 95" xmlns="http://www.w3.org/2000/svg" width="31.505" height="29.655" viewBox="0 0 31.505 29.655">
  <defs>
    <style>
      .cls-1 {
        fill: #024c64;
      }
    </style>
  </defs>
  <path id="Subtraction_4" data-name="Subtraction 4" class="cls-1" d="M23.724,29.655H2.965A2.974,2.974,0,0,1,0,26.689V5.931A2.974,2.974,0,0,1,2.965,2.965h6.2a4.515,4.515,0,0,1,1.6-2.128,4.392,4.392,0,0,1,5.16,0,4.515,4.515,0,0,1,1.6,2.128H21.08a4.982,4.982,0,0,0,4.7,6.641,5.025,5.025,0,0,0,.913-.084V26.689a2.974,2.974,0,0,1-2.965,2.965Zm-17.793-8.9v2.965H16.31V20.758Zm0-5.931v2.965H20.758V14.827Zm0-5.931v2.965H20.758V8.9Zm7.414-5.931a1.483,1.483,0,1,0,1.483,1.483A1.484,1.484,0,0,0,13.345,2.965Z" transform="translate(0 0)"/>
  <path id="Path_120" data-name="Path 120" class="cls-1" d="M-1207.156,2727.539v-2.648s-2.969,1.267-4.187,1.127,1.863,3.045,1.863,3.045Z" transform="translate(1233.845 -2717.138)"/>
  <path id="Subtraction_1" data-name="Subtraction 1" class="cls-1" d="M10.885,11.9h0L7.483,8.5V7.966L7.3,7.776A4.428,4.428,0,1,1,7.776,7.3l.19.184H8.5l3.395,3.4L10.886,11.9ZM4.422,1.36A3.061,3.061,0,1,0,7.483,4.422,3.065,3.065,0,0,0,4.422,1.36Z" transform="translate(19.606 0.354)"/>
</svg>
