<svg id="Group_207" data-name="Group 207" xmlns="http://www.w3.org/2000/svg" width="37.135" height="49.202" viewBox="0 0 37.135 49.202">
  <defs>
    <style>
      .cls-1 {
        fill: #00accd;
      }
    </style>
  </defs>
  <path id="Path_93" data-name="Path 93" class="cls-1" d="M226.6,506.293c-1.921.594-3.849,1.163-5.779,1.725a1.8,1.8,0,0,0-1.267,1.059,23,23,0,0,1-1.572,3.006,53.819,53.819,0,0,1-7.338,8.49c-.751.761-1.235.776-1.98-.008-1.642-1.726-3.3-3.438-4.876-5.224A21.009,21.009,0,0,1,199.727,509a1.6,1.6,0,0,0-1.186-.959c-1.97-.59-3.942-1.177-5.906-1.787-1.087-.338-1.66.142-1.524,1.268a20.558,20.558,0,0,0,3.177,8.436,60,60,0,0,0,8.364,9.89,69.447,69.447,0,0,1,8.291,9.41,15.063,15.063,0,0,1,2.837,7.289c.052.669.434.977,1.189.993.949.02,1.9,0,2.848,0,.926,0,1.853.01,2.78,0,.959-.014,1.267-.332,1.243-1.259a17.084,17.084,0,0,0-1.147-5.472,30.714,30.714,0,0,0-4.944-8.473c-.554-.7-.522-1.047.1-1.679,1.053-1.071,2.109-2.14,3.141-3.232a43.9,43.9,0,0,0,6.827-8.807,19.722,19.722,0,0,0,2.382-6.988C228.367,506.342,227.82,505.913,226.6,506.293Z" transform="translate(-191.091 -494.356)"/>
  <path id="Path_94" data-name="Path 94" class="cls-1" d="M203.513,532.473a1,1,0,0,0-1.694.154c-.433.656-.846,1.328-1.223,2.017a20.3,20.3,0,0,0-2.764,9c-.036.911.322,1.264,1.235,1.277s1.852,0,2.778,0v0c.95,0,1.9.007,2.848,0,.625-.006,1.125-.262,1.174-.931a13.563,13.563,0,0,1,1.638-5.331,1.58,1.58,0,0,0-.223-1.926C206.034,535.306,204.786,533.877,203.513,532.473Z" transform="translate(-191.448 -495.728)"/>
  <path id="Path_95" data-name="Path 95" class="cls-1" d="M209.586,515.651a1.044,1.044,0,0,0,1.727.013,15.665,15.665,0,0,0,3.318-4.826c.377-.829-.017-1.425-.923-1.436-1.085-.012-2.171,0-3.256,0v0c-1.062,0-2.124,0-3.187,0-1.009,0-1.38.553-.964,1.484A15.569,15.569,0,0,0,209.586,515.651Z" transform="translate(-191.887 -494.527)"/>
  <path id="Path_96" data-name="Path 96" class="cls-1" d="M221.755,503.173a3.155,3.155,0,0,0,3.138-3.2,3.166,3.166,0,1,0-3.138,3.2Z" transform="translate(-192.545 -493.862)"/>
  <path id="Path_97" data-name="Path 97" class="cls-1" d="M210.575,500.043a3.174,3.174,0,0,0-.1-6.346,3.174,3.174,0,1,0,.1,6.346Z" transform="translate(-191.949 -493.697)"/>
  <path id="Path_98" data-name="Path 98" class="cls-1" d="M199.375,503.171a3.137,3.137,0,0,0,3.106-3.159,3.089,3.089,0,0,0-3.143-3.175,3.019,3.019,0,0,0-3.149,3.143A3.069,3.069,0,0,0,199.375,503.171Z" transform="translate(-191.361 -493.863)"/>
</svg>
