<svg xmlns="http://www.w3.org/2000/svg" width="60.273" height="20" viewBox="0 0 60.273 20">
  <g id="Group_220" data-name="Group 220" transform="translate(-538 -608)">
    <path id="Exclusion_5" data-name="Exclusion 5" d="M4347-2518h-14a3,3,0,0,1-3-3v-14a3,3,0,0,1,3-3h14a3,3,0,0,1,3,3v14A3,3,0,0,1,4347-2518Zm-.23-4.767h0l-1.39,1.668a1.332,1.332,0,0,0,.213.015,1.021,1.021,0,0,0,.9-.436,2.36,2.36,0,0,0,.276-1.247Zm-1.858-.435h0l-2.687,1.548a2.1,2.1,0,0,0,.918.24,1.218,1.218,0,0,0,.783-.263,3.34,3.34,0,0,0,.986-1.525Zm-1.2-1.568h0l-4.456,1.351a3.025,3.025,0,0,0,1.714.646,1.888,1.888,0,0,0,.808-.178,4.8,4.8,0,0,0,1.935-1.819Zm-1.7-1.393h0l-6.059.205a4.37,4.37,0,0,0,2.719,1.187,2.91,2.91,0,0,0,.912-.146,5.456,5.456,0,0,0,2.428-1.246Zm-8.758-3.524a2.766,2.766,0,0,0,.588,1.027,3.435,3.435,0,0,0,2.57,1.094c.661.023,1.392.035,2.171.035,1.727,0,3.058-.059,3.069-.059l-8.4-2.1Zm-.471-5.251a3.1,3.1,0,0,0,.249,1.359,4.145,4.145,0,0,0,2.523,2.224c2.961,1.124,5.97,2.024,6.1,2.062l-8.869-5.646Z" transform="translate(-3792 3146)" fill="#00accd"/>
    <path id="Union_11" data-name="Union 11" d="M5.529,7.368H0V3.011H5.529V0l5.2,5.2-5.2,5.2Z" transform="translate(561.527 612.187)" fill="#00accd"/>
    <path id="Union_12" data-name="Union 12" d="M1.121,19.675A1.122,1.122,0,0,1,0,18.553V7.053H22.273v11.5a1.122,1.122,0,0,1-1.12,1.121ZM0,6.311V1.121A1.122,1.122,0,0,1,1.121,0H9.28A1.122,1.122,0,0,1,10.4,1.121V2.97H21.153a1.122,1.122,0,0,1,1.12,1.121v2.22Z" transform="translate(576 608)" fill="#00accd"/>
  </g>
</svg>
