<svg xmlns="http://www.w3.org/2000/svg" width="45.128" height="44.27" viewBox="0 0 45.128 44.27">
  <defs>
    <style>
      .cls-1 {
        fill: #00accd;
      }
    </style>
  </defs>
  <g id="Group_210" data-name="Group 210" transform="translate(-124.335 -380.825)">
    <path id="Path_107" data-name="Path 107" class="cls-1" d="M139.351,411.545c.333,3.006,1.824,4.892,4.375,5.53a5.463,5.463,0,0,0,1.218.162c1.272.022,2.546.031,3.818.007a5.629,5.629,0,0,0,5.588-4.979c.038-.235.07-.47.109-.735h14.972c.01.161.031.331.031.5q0,7.877,0,15.753a3.761,3.761,0,0,1-3.805,3.921q-18.681.006-37.363,0a3.763,3.763,0,0,1-3.956-4.065q0-7.666,0-15.332v-.763Z" transform="translate(0 -6.615)"/>
    <path id="Path_108" data-name="Path 108" class="cls-1" d="M149.012,389.269c-1.366,0-2.654.01-3.942,0-.432-.005-1.056.155-1.167-.385-.066-.326.289-.831.579-1.127,2.133-2.182,4.3-4.331,6.452-6.49.139-.139.284-.271.457-.436,1.384,1.382,2.756,2.746,4.123,4.115q1.449,1.451,2.888,2.912a1.334,1.334,0,0,1,.315.352c.1.221.241.519.164.692a.808.808,0,0,1-.612.345c-.86.043-1.722.026-2.584.029-.62,0-1.241,0-1.908,0-.014.307-.034.542-.034.777q0,6.765,0,13.528c0,1.6-.9,2.7-2.256,2.75a2.391,2.391,0,0,1-2.48-2.525c-.008-3.287,0-6.574,0-9.861C149.013,392.418,149.012,390.9,149.012,389.269Z" transform="translate(-4.566)"/>
  </g>
</svg>
