<svg xmlns="http://www.w3.org/2000/svg" width="47.924" height="35.932" viewBox="0 0 47.924 35.932">
  <defs>
    <style>
      .cls-1 {
        fill: #00accd;
      }
    </style>
  </defs>
  <path id="Path_147" data-name="Path 147" class="cls-1" d="M454.225,769.852V744.434c.041-.144.09-.287.121-.433a5.916,5.916,0,0,1,1.82-3.243,6.113,6.113,0,0,1,4.3-1.581q17.468.011,34.934.005c.369,0,.741-.012,1.109.018a5.74,5.74,0,0,1,4.922,3.2,14.445,14.445,0,0,1,.712,2.037v25.417c-.041.144-.09.287-.121.433a5.928,5.928,0,0,1-1.82,3.243,6.122,6.122,0,0,1-4.3,1.581q-17.736-.011-35.47,0c-.2,0-.408,0-.611-.019a5.744,5.744,0,0,1-4.867-3.163A14.6,14.6,0,0,1,454.225,769.852Zm5.1,2.138a12.053,12.053,0,0,0,1.261.145q8.84.013,17.682.006,8.784,0,17.567-.006a10.58,10.58,0,0,0,1.221-.148l-13.014-14.871c-.1.071-.166.11-.223.159q-2.291,1.966-4.582,3.933a1.551,1.551,0,0,1-2.063.022c-1.068-.908-2.127-1.824-3.191-2.736-.538-.459-1.078-.917-1.634-1.389Zm18.867-13.82,18.474-15.836-.033-.105c-.26-.027-.52-.08-.78-.081-1.416-.008-2.832,0-4.248,0q-15.5,0-31,0a8.543,8.543,0,0,0-.87.088l-.009.108Zm8.107-3.015,12.686,14.5.108-.035c.025-.259.071-.517.071-.776q.006-11.693,0-23.385a5.683,5.683,0,0,0-.074-.8,1.663,1.663,0,0,0-.136-.347Zm-28.812-10.8-.139.006a7.661,7.661,0,0,0-.128.992q-.011,11.787,0,23.573a7.492,7.492,0,0,0,.1.813l12.763-14.59Z" transform="translate(-454.225 -739.177)"/>
</svg>
