<svg xmlns="http://www.w3.org/2000/svg" xmlns:xlink="http://www.w3.org/1999/xlink" width="131" height="51.899" viewBox="0 0 131 51.899">
  <defs>
    <style>
      .cls-1 {
        fill: #f8f8f8;
      }

      .cls-2, .cls-3 {
        stroke: none;
      }

      .cls-3 {
        fill: #d8d8d8;
      }

      .cls-4 {
        filter: url(#Union_7);
      }
    </style>
    <filter id="Union_7" x="0" y="0" width="131" height="51.899" filterUnits="userSpaceOnUse">
      <feOffset dx="2" dy="2" input="SourceAlpha"/>
      <feGaussianBlur stdDeviation="3" result="blur"/>
      <feFlood flood-opacity="0.161"/>
      <feComposite operator="in" in2="blur"/>
      <feComposite in="SourceGraphic"/>
    </filter>
  </defs>
  <g class="cls-4" transform="matrix(1, 0, 0, 1, 0, 0)">
    <g id="Union_7-2" data-name="Union 7" class="cls-1" transform="translate(-936 3391)">
      <path class="cls-2" d="M 999.9999389648438 -3350.8076171875 L 994.4539794921875 -3356.353759765625 L 994.3074951171875 -3356.500244140625 L 994.1004028320312 -3356.500244140625 L 943.500244140625 -3356.500244140625 L 943.500244140625 -3383.5 L 1055.499755859375 -3383.5 L 1055.499755859375 -3356.500244140625 L 1005.899963378906 -3356.500244140625 L 1005.69287109375 -3356.500244140625 L 1005.54638671875 -3356.353759765625 L 999.9999389648438 -3350.8076171875 Z"/>
      <path class="cls-3" d="M 999.9999389648438 -3351.514892578125 L 1005.19287109375 -3356.707275390625 L 1005.485778808594 -3357.000244140625 L 1005.899963378906 -3357.000244140625 L 1054.999755859375 -3357.000244140625 L 1054.999755859375 -3383 L 944.000244140625 -3383 L 944.000244140625 -3357.000244140625 L 994.1004028320312 -3357.000244140625 L 994.5145874023438 -3357.000244140625 L 994.8074951171875 -3356.707275390625 L 999.9999389648438 -3351.514892578125 M 999.9999389648438 -3350.1005859375 L 994.1004028320312 -3356.000244140625 L 943.000244140625 -3356.000244140625 L 943.000244140625 -3384 L 1055.999755859375 -3384 L 1055.999755859375 -3356.000244140625 L 1005.899963378906 -3356.000244140625 L 999.9999389648438 -3350.1005859375 Z"/>
    </g>
  </g>
</svg>
