<svg xmlns="http://www.w3.org/2000/svg" width="51.828" height="39.506" viewBox="0 0 51.828 39.506">
  <defs>
    <style>
      .cls-1 {
        fill: #00accd;
      }
    </style>
  </defs>
  <path id="Path_145" data-name="Path 145" class="cls-1" d="M443.056,243.13H396.114a2.443,2.443,0,0,0-2.443,2.443v34.62a2.443,2.443,0,0,0,2.443,2.443h46.941a2.443,2.443,0,0,0,2.443-2.443v-34.62A2.443,2.443,0,0,0,443.056,243.13Zm-40.787,20.824a1.823,1.823,0,0,1-.984-3.36l6.67-4.266-6.722-4.3a1.823,1.823,0,1,1,1.965-3.072l9.124,5.835a1.823,1.823,0,0,1,0,3.072l-9.072,5.8A1.815,1.815,0,0,1,402.269,263.954Zm21.31,3.571H412.152a1.823,1.823,0,1,1,0-3.646h11.427a1.823,1.823,0,1,1,0,3.646Z" transform="translate(-393.671 -243.13)"/>
</svg>
