<svg id="Group_205" data-name="Group 205" xmlns="http://www.w3.org/2000/svg" width="50.743" height="41.782" viewBox="0 0 50.743 41.782">
  <defs>
    <style>
      .cls-1 {
        fill: #00accd;
      }
    </style>
  </defs>
  <path id="Path_84" data-name="Path 84" class="cls-1" d="M127.147,132.676V116.156a1.227,1.227,0,0,0-1.227-1.227H104.546a1.227,1.227,0,0,0-1.227,1.227v16.519a1.227,1.227,0,0,0,1.227,1.227H125.92A1.227,1.227,0,0,0,127.147,132.676Zm-13.083-1.227h-8.407v-4.291h8.407Zm0-6.664h-8.407v-4.291h8.407Zm10.745,6.664H116.4v-4.291h8.406Zm0-6.664H116.4v-4.291h8.406Z" transform="translate(-103.319 -114.929)"/>
  <path id="Path_85" data-name="Path 85" class="cls-1" d="M255.581,114.929H234.207a1.227,1.227,0,0,0-1.227,1.227v16.519a1.227,1.227,0,0,0,1.227,1.227h21.373a1.227,1.227,0,0,0,1.227-1.227V116.156A1.227,1.227,0,0,0,255.581,114.929Zm-11.856,16.52h-8.406v-4.291h8.406Zm0-6.664h-8.406v-4.291h8.406Zm10.745,6.664h-8.406v-4.291h8.406Zm0-6.664h-8.406v-4.291h8.406Z" transform="translate(-206.065 -114.929)"/>
  <path id="Path_86" data-name="Path 86" class="cls-1" d="M189.947,224.8H168.573a1.227,1.227,0,0,0-1.227,1.227v16.519a1.227,1.227,0,0,0,1.227,1.227h21.373a1.227,1.227,0,0,0,1.227-1.227V226.029A1.227,1.227,0,0,0,189.947,224.8Zm-11.856,16.52h-8.406V237.03h8.406Zm0-6.664h-8.406v-4.291h8.406Zm10.745,6.664h-8.406V237.03h8.406Zm0-6.664h-8.406v-4.291h8.406Z" transform="translate(-154.055 -201.994)"/>
  <path id="Path_87" data-name="Path 87" class="cls-1" d="M121.989,225.134l1.158,1.158h-3.154v-7.953h-2.076v10.029h5.188l-1.158,1.158,1.468,1.468,3.684-3.684-3.643-3.643Z" transform="translate(-114.887 -196.873)"/>
  <path id="Path_88" data-name="Path 88" class="cls-1" d="M294.434,226.292h-3.154l1.158-1.158-1.468-1.468-3.643,3.643,3.684,3.684,1.468-1.468-1.158-1.158h5.188V218.339h-2.076Z" transform="translate(-249.131 -196.873)"/>
</svg>
