<svg id="Group_96" data-name="Group 96" xmlns="http://www.w3.org/2000/svg" width="31.227" height="30.717" viewBox="0 0 31.227 30.717">
  <defs>
    <style>
      .cls-1 {
        fill: #00accd;
      }

      .cls-2 {
        fill: #fff;
      }
    </style>
  </defs>
  <path id="Subtraction_2" data-name="Subtraction 2" class="cls-1" d="M23.724,29.655H2.965A2.974,2.974,0,0,1,0,26.689V5.931A2.974,2.974,0,0,1,2.965,2.965h6.2a4.515,4.515,0,0,1,1.6-2.128,4.392,4.392,0,0,1,5.16,0,4.515,4.515,0,0,1,1.6,2.128H21.08a4.982,4.982,0,0,0,4.7,6.641,5.025,5.025,0,0,0,.913-.084V26.689a2.974,2.974,0,0,1-2.965,2.965Zm-17.793-8.9v2.965H16.31V20.758Zm0-5.931v2.965H20.758V14.827Zm0-5.931v2.965H20.758V8.9Zm7.414-5.931a1.483,1.483,0,1,0,1.483,1.483A1.484,1.484,0,0,0,13.345,2.965Z" transform="translate(0 1.062)"/>
  <path id="ic_add_circle_outline_24px" class="cls-2" d="M8.163,4.8H7.042V7.042H4.8V8.163H7.042V10.4H8.163V8.163H10.4V7.042H8.163ZM7.6,2a5.6,5.6,0,1,0,5.6,5.6A5.6,5.6,0,0,0,7.6,2Zm0,10.085A4.482,4.482,0,1,1,12.085,7.6,4.488,4.488,0,0,1,7.6,12.085Z" transform="translate(18.021 -2)"/>
</svg>
